<svg width="196" height="48" viewBox="0 0 196 48" fill="none" xmlns="http://www.w3.org/2000/svg">
<path fill-rule="evenodd" clip-rule="evenodd" d="M131.196 15.5587C129.551 15.5543 127.941 16.0367 126.571 16.9448C125.201 17.8529 124.132 19.1459 123.499 20.6602C122.865 22.1746 122.697 23.8423 123.014 25.4522C123.331 27.0622 124.12 28.5422 125.281 29.7049C126.441 30.8677 127.922 31.6609 129.535 31.9843C131.147 32.3077 132.82 32.1467 134.341 31.5217C135.862 30.8967 137.163 29.8357 138.079 28.4731C138.996 27.1105 139.486 25.5073 139.489 23.8666C139.486 21.6693 138.611 19.5627 137.056 18.0063C135.501 16.4499 133.392 15.57 131.189 15.5587H131.196ZM112.348 15.8225C114.065 15.8225 115.475 16.4048 116.469 17.3638C117.499 18.3537 118.047 19.7615 118.047 21.385C118.047 23.0085 117.492 24.4163 116.469 25.4079C115.476 26.3704 114.065 26.9236 112.348 26.9236H107.964V31.8798H105.275V15.8225H112.348ZM107.964 24.3033H112.289C113.282 24.3033 114.043 24.0413 114.539 23.5463C115.064 23.0514 115.358 22.2927 115.358 21.3884C115.358 20.4842 115.064 19.7272 114.539 19.2323C114.043 18.7373 113.282 18.4445 112.289 18.4445H107.964V24.3033ZM177.487 31.8832H167.317V15.8225H170.006V29.2304H178.217V31.8832H177.487ZM193.998 30.8917C192.887 31.6777 191.28 32.1162 189.381 32.1162C188.124 32.1217 186.879 31.8632 185.729 31.3575C184.612 30.9095 183.62 30.1999 182.836 29.2887L182.425 28.8211L184.209 26.8105L184.764 27.511C185.273 28.1447 185.937 28.6366 186.692 28.9393C187.542 29.3009 188.457 29.489 189.381 29.4925C190.638 29.4925 191.632 29.2596 192.274 28.852C192.829 28.4718 193.152 27.9768 193.152 27.3637C193.152 26.7814 192.98 26.4029 192.479 26.0827C191.836 25.6734 190.762 25.3531 189.06 25.0328C186.984 24.6544 185.523 24.1577 184.56 23.4007C183.478 22.5838 183.04 21.5648 183.04 20.1656C183.04 18.7664 183.711 17.5967 184.881 16.7832C185.962 16.0263 187.482 15.5844 189.264 15.5844C190.353 15.5813 191.433 15.7794 192.449 16.1684C193.414 16.539 194.291 17.1046 195.025 17.8296L195.463 18.2955L193.826 20.3078L193.272 19.7238C192.773 19.228 192.176 18.8408 191.519 18.5866C190.805 18.294 190.04 18.1456 189.268 18.1499C188.128 18.1499 187.194 18.3828 186.55 18.7921C186.306 18.9373 186.103 19.1418 185.96 19.3865C185.817 19.6313 185.739 19.9082 185.732 20.1913C185.719 20.438 185.771 20.684 185.884 20.904C185.996 21.1239 186.166 21.3101 186.375 21.4432C186.988 21.8525 188.011 22.1437 189.53 22.4708C191.781 22.8493 193.308 23.3459 194.294 24.0738C195.434 24.8907 195.871 25.9097 195.871 27.3089C195.884 28.0148 195.72 28.7126 195.393 29.339C195.067 29.9653 194.588 30.5002 194.002 30.8951L193.998 30.8917ZM131.196 18.2184C130.077 18.2154 128.982 18.5434 128.05 19.1609C127.119 19.7785 126.391 20.6579 125.96 21.6878C125.53 22.7178 125.415 23.852 125.63 24.947C125.846 26.0421 126.383 27.0487 127.172 27.8396C127.961 28.6305 128.968 29.1701 130.065 29.3902C131.162 29.6103 132.3 29.5009 133.334 29.076C134.369 28.6511 135.254 27.9296 135.877 27.0029C136.5 26.0762 136.834 24.9859 136.836 23.87C136.836 22.3755 136.243 20.9419 135.186 19.8828C134.129 18.8236 132.694 18.2252 131.196 18.2184ZM152.851 15.5656C151.206 15.5625 149.598 16.046 148.228 16.955C146.859 17.8639 145.791 19.1574 145.159 20.6718C144.527 22.1863 144.359 23.8538 144.677 25.4633C144.995 27.0729 145.784 28.5522 146.945 29.7142C148.106 30.8763 149.587 31.6688 151.199 31.9916C152.812 32.3145 154.484 32.1531 156.005 31.5279C157.525 30.9027 158.826 29.8417 159.742 28.4792C160.658 27.1168 161.149 25.5139 161.151 23.8734C161.147 21.6763 160.272 19.5699 158.717 18.0136C157.163 16.4573 155.054 15.5773 152.851 15.5656ZM152.851 18.2184C151.732 18.2154 150.638 18.5434 149.706 19.1609C148.774 19.7785 148.046 20.6579 147.616 21.6878C147.185 22.7178 147.07 23.852 147.286 24.947C147.501 26.0421 148.038 27.0487 148.827 27.8396C149.617 28.6305 150.623 29.1701 151.72 29.3902C152.817 29.6103 153.955 29.5009 154.989 29.076C156.024 28.6511 156.909 27.9296 157.532 27.0029C158.156 26.0762 158.49 24.9859 158.492 23.87C158.489 22.3762 157.895 20.9439 156.839 19.8852C155.782 18.8266 154.349 18.2274 152.851 18.2184Z" fill="#00BEE6"/>
<path fill-rule="evenodd" clip-rule="evenodd" d="M24.3197 37.4782C21.91 37.4957 19.5391 36.8721 17.4515 35.6714H17.4223C16.4084 35.0607 15.4672 34.3374 14.6167 33.5152C12.9303 31.8349 11.7119 29.7454 11.0813 27.4526C10.7869 26.2799 10.6398 25.0753 10.6435 23.8664C10.6155 21.4616 11.2415 19.0942 12.455 17.016C13.0524 15.9947 13.7789 15.0542 14.6167 14.2176V14.1885C15.4603 13.3667 16.4027 12.6523 17.4223 12.0615H17.4515C18.4763 11.453 19.5774 10.9825 20.7259 10.6623C21.9017 10.3731 23.1087 10.2293 24.3197 10.2341C27.3461 10.2075 30.2924 11.2042 32.6782 13.0616C33.4556 13.6476 34.1616 14.3224 34.7816 15.0722L35.5131 15.9473L31.6257 18.9684L30.9543 18.1515C30.5574 17.6649 30.1063 17.2248 29.6099 16.8396C29.1058 16.4714 28.5676 16.152 28.0027 15.8857C27.4453 15.6168 26.8555 15.4205 26.2479 15.3017C25.6154 15.1589 24.9682 15.0905 24.3197 15.0979C22.7693 15.0751 21.2425 15.4786 19.9069 16.2642C18.5859 17.0261 17.4878 18.1196 16.7218 19.4359C16.3423 20.0935 16.0568 20.8008 15.8736 21.5373C15.6707 22.2974 15.5725 23.0816 15.5817 23.8681C15.5775 24.634 15.6657 25.3976 15.8444 26.1425C16.051 26.874 16.3456 27.5778 16.7218 28.2387C17.0947 28.8932 17.5462 29.4999 18.0662 30.0455C18.5998 30.5838 19.1985 31.0539 19.8485 31.4447C20.4987 31.8473 21.2086 32.1449 21.9519 32.3267C22.7228 32.5407 23.5195 32.6485 24.3197 32.6469C24.9885 32.6431 25.6548 32.565 26.3063 32.414C26.9691 32.2688 27.6088 32.0331 28.2071 31.7136C28.7962 31.4096 29.354 31.0488 29.8726 30.6363C30.3718 30.2 30.8226 29.7114 31.217 29.1789L31.9176 28.2164L35.6951 31.5389L35.0512 32.3558C33.7802 33.9419 32.1737 35.2284 30.3465 36.1235C29.4197 36.5899 28.4395 36.9424 27.4275 37.1733C26.4107 37.3833 25.3752 37.4905 24.3368 37.4936L24.3197 37.4782Z" fill="#00BEE6"/>
<path d="M70.9023 37.5073C69.6483 37.508 68.3999 37.3416 67.1901 37.0123C66.0064 36.6998 64.8745 36.2176 63.8298 35.5806C62.8019 34.956 61.8579 34.2032 61.0208 33.3405C60.1984 32.4833 59.4914 31.523 58.9174 30.4839C58.3666 29.4373 57.9363 28.3319 57.6348 27.1888C57.3337 26.0569 57.1763 24.8918 57.166 23.7208C57.1743 22.5497 57.3318 21.3843 57.6348 20.2528C57.9302 19.1306 58.3724 18.0521 58.95 17.0451C59.5365 16.0323 60.2427 15.0934 61.0534 14.2484C61.8809 13.4118 62.8142 12.6864 63.8298 12.0905C64.8366 11.4615 65.929 10.9804 67.0733 10.6622C68.2482 10.3607 69.4557 10.2042 70.6688 10.1964C71.7615 10.1901 72.8508 10.3178 73.9123 10.5766C74.9678 10.8039 75.9893 11.1666 76.9515 11.6555C77.9206 12.1344 78.8324 12.721 79.6695 13.4041C80.495 14.0869 81.2311 14.8706 81.8605 15.7367L82.5043 16.581L78.5552 19.5541L77.913 18.6806C77.4965 18.1138 77.016 17.5966 76.481 17.1393C75.9646 16.7014 75.3953 16.3297 74.7863 16.0329C74.1751 15.7345 73.5315 15.5069 72.8683 15.3548C72.1682 15.199 71.4531 15.1209 70.7358 15.1218C69.9763 15.127 69.2204 15.2248 68.4847 15.413C67.7611 15.6089 67.0645 15.893 66.4106 16.259C65.7746 16.6378 65.1836 17.087 64.6489 17.5983C64.1116 18.1253 63.6494 18.7235 63.2752 19.3759C62.8907 20.0092 62.6047 20.6969 62.427 21.4157C62.2223 22.1562 62.124 22.9219 62.1351 23.69C62.1401 25.1803 62.5009 26.6479 63.1877 27.9715C63.5095 28.6527 63.9327 29.2814 64.4428 29.8365C64.9592 30.4073 65.5493 30.9072 66.1976 31.3231C66.8527 31.755 67.5726 32.0799 68.3302 32.2855C69.1608 32.4995 70.0153 32.6071 70.8731 32.6058C71.5119 32.6116 72.1492 32.5432 72.7722 32.402C73.4282 32.2492 74.0651 32.024 74.6712 31.7307C75.2863 31.4443 75.8631 31.0824 76.3883 30.6534C76.9386 30.224 77.4299 29.7242 77.8495 29.1669C78.2982 28.6107 78.6621 27.9915 78.9295 27.3293C79.0537 27.0049 79.1615 26.6746 79.2523 26.3394H69.9665V21.4174H84.3725L84.4892 22.409C84.7406 24.9629 84.2751 27.5363 83.1448 29.8417C82.5817 30.9764 81.8748 32.0343 81.0414 32.9894C80.1878 33.9187 79.2157 34.7323 78.1499 35.4093C77.0825 36.0977 75.9206 36.6278 74.7004 36.9832C73.4652 37.3345 72.1867 37.5109 70.9023 37.5073Z" fill="#00BEE6"/>
<path d="M1.55483 32.3779C-0.502992 26.9607 -0.518654 20.9825 1.51076 15.5546C3.54018 10.1267 7.47659 5.61848 12.5882 2.86799C17.6998 0.117504 23.6389 -0.688114 29.3013 0.600902C34.9637 1.88992 39.9643 5.18587 43.3733 9.87603L38.7562 13.4314C37.079 11.0999 34.8772 9.19301 32.3276 7.86372C29.0699 6.179 25.3764 5.51979 21.7351 5.97323C18.0939 6.42667 14.6762 7.9714 11.9338 10.4033C9.19143 12.8352 7.25337 16.0398 6.37574 19.5936C5.4981 23.1475 5.72221 26.8833 7.01844 30.3074C7.79167 32.3663 8.94156 34.2641 10.4096 35.9042C12.1071 37.8751 14.21 39.4586 16.5755 40.547C18.9446 41.6172 21.5143 42.174 24.115 42.1808C27.5567 42.1799 30.9274 41.2042 33.8349 39.3672C36.7423 37.5302 39.067 34.9075 40.5385 31.8042L48.9846 13.8972C51.0297 9.5112 54.3543 5.84284 58.5235 3.37191C62.6927 0.900983 67.5125 -0.257497 72.3525 0.0479805C77.1925 0.353458 81.8275 2.10867 85.6512 5.08407C89.4748 8.05948 92.3093 12.1166 93.7838 16.7247C95.4537 21.9747 95.2554 27.6386 93.2224 32.7596C91.1895 37.8805 87.4465 42.1446 82.6259 44.8312C77.8054 47.5178 72.2028 48.4623 66.7647 47.5052C61.3267 46.548 56.3866 43.7478 52.7792 39.5777L57.3689 35.9624C59.0355 37.8564 61.0877 39.3744 63.3888 40.4151C66.5822 41.8718 70.1308 42.3728 73.6041 41.8574C77.0774 41.342 80.326 39.8322 82.956 37.5114C85.5859 35.1905 87.484 32.1583 88.42 28.7826C89.356 25.4068 89.2898 21.8327 88.2292 18.4938C87.6656 16.7023 86.8181 15.0123 85.7189 13.4879C83.8929 10.8604 81.4016 8.76228 78.4986 7.4069C75.5957 6.05153 72.3845 5.4873 69.192 5.77163C65.9994 6.05596 62.9393 7.17869 60.323 9.02561C57.7067 10.8725 55.6275 13.3777 54.2971 16.2863L45.7926 34.2686C43.115 39.9711 38.2846 44.3856 32.3556 46.5488C26.4267 48.712 19.8805 48.4482 14.1459 45.815C11.0121 44.3944 8.22998 42.3035 5.99681 39.6907C4.09001 37.5361 2.58559 35.0582 1.55483 32.3745V32.3779Z" fill="#00BEE6"/>
</svg>
