<svg width="28" height="41" viewBox="0 0 28 41" fill="none" xmlns="http://www.w3.org/2000/svg">
<path d="M13.75 0.5C6.15594 0.5 0 6.65594 0 14.25C0 21.8441 13.75 40.5 13.75 40.5C13.75 40.5 27.5 21.8441 27.5 14.25C27.5 6.65594 21.3441 0.5 13.75 0.5ZM2.5 14.25C2.5 8.04625 7.54625 3 13.75 3C19.9538 3 25 8.04625 25 14.25C25 18.5713 18.7475 29.0034 13.75 36.1994C8.7525 29.0034 2.5 18.5713 2.5 14.25ZM13.75 8C10.2978 8 7.5 10.7978 7.5 14.25C7.5 17.7022 10.2978 20.5 13.75 20.5C17.2022 20.5 20 17.7022 20 14.25C20 10.7978 17.2022 8 13.75 8ZM13.75 18C11.6822 18 10 16.3178 10 14.25C10 12.1822 11.6822 10.5 13.75 10.5C15.8178 10.5 17.5 12.1822 17.5 14.25C17.5 16.3178 15.8178 18 13.75 18Z" fill="#23A3FF"/>
</svg>
