<svg width="1928" height="376" viewBox="0 0 1928 376" fill="none" xmlns="http://www.w3.org/2000/svg">
<path d="M4 332.468C95.9745 385.177 199.446 385.177 291.42 332.468C383.395 279.752 416.609 -42.9169 508.584 9.79862C570.524 79.3374 677.395 408.07 795.064 340.961C887.038 288.245 988.191 7.04196 1080.17 59.7574C1172.14 112.467 1323.12 76.4963 1415.09 23.7869C1528.91 -9.68549 1636.55 279.752 1728.52 332.468C1820.5 385.177 1832.03 385.177 1924 332.468" stroke="#23A3FF" stroke-width="8" stroke-miterlimit="2" stroke-linecap="round" stroke-linejoin="round"/>
<circle cx="299.688" cy="328" r="12" fill="#23A3FF"/>
<path d="M570.688 86C570.688 92.6274 565.315 98 558.688 98C552.06 98 546.688 92.6274 546.688 86C546.688 79.3726 552.06 74 558.688 74C565.315 74 570.688 79.3726 570.688 86Z" fill="#23A3FF"/>
<circle cx="880.688" cy="246" r="12" fill="#23A3FF"/>
<circle cx="1181.69" cy="85" r="12" fill="#23A3FF"/>
<circle cx="1630.69" cy="222" r="12" fill="#23A3FF"/>
</svg>
