<svg width="41" height="41" viewBox="0 0 41 41" fill="none" xmlns="http://www.w3.org/2000/svg">
<g clip-path="url(#clip0_1078_645)">
<path d="M29.4277 0.5H11.4675C5.36835 0.5 0.40625 5.452 0.40625 11.5385V29.4613C0.40625 35.548 5.36835 40.4998 11.4675 40.4998H29.4277C35.5274 40.4998 40.4895 35.5478 40.4895 29.4613V11.5385C40.4897 5.452 35.5274 0.5 29.4277 0.5ZM36.9334 29.4613C36.9334 33.5911 33.5664 36.9508 29.428 36.9508H11.4675C7.32934 36.951 3.96263 33.5911 3.96263 29.4613V11.5385C3.96263 7.4089 7.32934 4.04897 11.4675 4.04897H29.4277C33.5662 4.04897 36.9331 7.4089 36.9331 11.5385V29.4613H36.9334Z" fill="#23A3FF"/>
<path d="M20.4476 10.1934C14.7524 10.1934 10.1191 14.817 10.1191 20.5003C10.1191 26.1834 14.7524 30.8067 20.4476 30.8067C26.1428 30.8067 30.776 26.1834 30.776 20.5003C30.776 14.817 26.1428 10.1934 20.4476 10.1934ZM20.4476 27.2575C16.7136 27.2575 13.6755 24.2262 13.6755 20.5C13.6755 16.7736 16.7134 13.7421 20.4476 13.7421C24.1818 13.7421 27.2196 16.7736 27.2196 20.5C27.2196 24.2262 24.1815 27.2575 20.4476 27.2575Z" fill="#23A3FF"/>
<path d="M31.2096 7.18408C30.5244 7.18408 29.8513 7.4609 29.3674 7.94593C28.8811 8.42859 28.6016 9.10053 28.6016 9.78666C28.6016 10.4707 28.8813 11.1424 29.3674 11.6274C29.851 12.1101 30.5244 12.3892 31.2096 12.3892C31.8971 12.3892 32.5681 12.1101 33.0542 11.6274C33.5402 11.1424 33.8176 10.4704 33.8176 9.78666C33.8176 9.10053 33.5402 8.42859 33.0542 7.94593C32.5705 7.4609 31.8971 7.18408 31.2096 7.18408Z" fill="#23A3FF"/>
</g>
<defs>
<clipPath id="clip0_1078_645">
<rect width="40.0835" height="40" fill="white" transform="translate(0.40625 0.5)"/>
</clipPath>
</defs>
</svg>
