<svg width="143" height="58" viewBox="0 0 143 58" fill="none" xmlns="http://www.w3.org/2000/svg">
<path d="M25.3966 19.6671L32.4155 1.27543H34.2626L41.2815 19.6671H38.7484L33.3654 4.60017L27.9561 19.6671H25.3966ZM29.3019 15.3396L30.0143 13.2551H36.6638L37.429 15.3396H29.3019ZM58.6564 19.9837C56.9676 19.9837 55.4812 19.5879 54.197 18.7963C52.9304 18.0047 51.9365 16.8964 51.2153 15.4715C50.5117 14.0467 50.1598 12.3843 50.1598 10.4844C50.1598 8.56699 50.5117 6.89583 51.2153 5.47094C51.9365 4.04605 52.9304 2.9378 54.197 2.1462C55.4812 1.35459 56.9676 0.958788 58.6564 0.958788C60.3803 0.958788 61.8844 1.35459 63.1685 2.1462C64.4527 2.9378 65.4466 4.04605 66.1503 5.47094C66.8715 6.89583 67.2321 8.56699 67.2321 10.4844C67.2321 12.3843 66.8715 14.0467 66.1503 15.4715C65.429 16.8964 64.4263 18.0047 63.1422 18.7963C61.858 19.5879 60.3627 19.9837 58.6564 19.9837ZM66.5197 20.8808L59.3688 13.9147L60.741 12.4634L67.9182 19.5087L66.5197 20.8808ZM58.6564 17.7672C59.9406 17.7672 61.04 17.4682 61.9547 16.87C62.8871 16.2719 63.6083 15.4276 64.1185 14.3369C64.6286 13.2463 64.8837 11.9621 64.8837 10.4844C64.8837 8.98918 64.6286 7.69623 64.1185 6.60557C63.6083 5.51492 62.8871 4.67054 61.9547 4.07244C61.04 3.47433 59.9406 3.17528 58.6564 3.17528C57.4074 3.17528 56.3168 3.47433 55.3844 4.07244C54.4521 4.65295 53.7308 5.48853 53.2207 6.57918C52.7282 7.66984 52.4819 8.97159 52.4819 10.4844C52.4819 11.9797 52.7282 13.2726 53.2207 14.3633C53.7308 15.454 54.4521 16.2983 55.3844 16.8964C56.3168 17.4769 57.4074 17.7672 58.6564 17.7672ZM85.8194 19.9837C83.6381 19.9837 81.9669 19.3944 80.8059 18.2158C79.6624 17.0372 79.0907 15.3044 79.0907 13.0176V1.27543H81.4128V12.7537C81.4128 13.8619 81.5535 14.7943 81.835 15.5507C82.134 16.3071 82.609 16.8788 83.2598 17.2659C83.9107 17.6529 84.7639 17.8464 85.8194 17.8464C86.8748 17.8464 87.728 17.6529 88.3789 17.2659C89.0474 16.8613 89.5311 16.2807 89.8302 15.5243C90.1292 14.7679 90.2787 13.8356 90.2787 12.7273V1.27543H92.5744V12.8856C92.5744 15.2077 91.9939 16.9756 90.8329 18.1894C89.6894 19.3856 88.0183 19.9837 85.8194 19.9837ZM102.176 19.6671L109.195 1.27543H111.042L118.061 19.6671H115.528L110.145 4.60017L104.736 19.6671H102.176ZM106.081 15.3396L106.794 13.2551H113.443L114.209 15.3396H106.081Z" fill="black"/>
<path d="M2.36073 56.9667V38.5751H7.45339C10.4615 38.5751 12.7923 39.393 14.4459 41.029C16.0995 42.6474 16.9263 44.9431 16.9263 47.916C16.9263 50.8361 16.1083 53.079 14.4723 54.6446C12.8363 56.1927 10.4879 56.9667 7.427 56.9667H2.36073ZM4.68277 54.8293H7.21591C8.78152 54.8293 10.1097 54.6007 11.2003 54.1433C12.3086 53.6683 13.1441 52.9207 13.7071 51.9004C14.2876 50.8625 14.5778 49.508 14.5778 47.8368C14.5778 46.1657 14.2876 44.8111 13.7071 43.7733C13.1441 42.7178 12.3262 41.9438 11.2531 41.4512C10.1976 40.9587 8.92225 40.7124 7.427 40.7124H4.68277V54.8293ZM28.2631 56.9667V38.5751H33.7516C35.1589 38.5751 36.3111 38.7861 37.2083 39.2083C38.1054 39.6129 38.7739 40.2022 39.2136 40.9763C39.6534 41.7503 39.8733 42.6738 39.8733 43.7469C39.8733 45.2773 39.4335 46.4911 38.554 47.3883C37.6744 48.2678 36.3991 48.7868 34.7279 48.9451C34.464 48.9627 34.1474 48.9715 33.778 48.9715C33.4085 48.9715 33.0479 48.9715 32.6961 48.9715H30.5852V56.9667H28.2631ZM38.554 56.9667L33.778 48.6812L36.1528 48.391L41.219 56.9667H38.554ZM30.5852 46.9133H33.5141C34.3233 46.9133 35.0269 46.8077 35.625 46.5966C36.2231 46.3856 36.6893 46.0513 37.0235 45.5939C37.3754 45.1366 37.5513 44.5297 37.5513 43.7733C37.5513 42.9992 37.3754 42.3923 37.0235 41.9526C36.6893 41.4952 36.2143 41.1698 35.5987 40.9763C35.0006 40.7652 34.3057 40.6596 33.5141 40.6596H30.5852V46.9133ZM51.7948 56.9667V38.5751H63.9064V40.6596H54.1168V46.5439H63.0092V48.6284H54.1168V54.8821H63.9064V56.9667H51.7948ZM73.5101 56.9667L80.529 38.5751H82.3761L89.395 56.9667H86.8619L81.479 41.8998L76.0697 56.9667H73.5101ZM77.4154 52.6392L78.1278 50.5547H84.7773L85.5425 52.6392H77.4154ZM99.8632 56.9667V38.5751H103.293L109.072 53.1142H108.65L114.429 38.5751H117.833V56.9667H115.511V41.2665L115.695 41.2929L109.996 55.4099H107.726L102 41.2929L102.185 41.2665V56.9667H99.8632ZM135.535 57.2569C133.688 57.2569 132.175 56.7732 130.996 55.8057C129.818 54.8381 129.096 53.554 128.832 51.9532L131.102 51.3991C131.295 52.6304 131.797 53.5716 132.606 54.2224C133.433 54.8557 134.435 55.1724 135.614 55.1724C136.3 55.1724 136.916 55.0404 137.461 54.7766C138.006 54.5127 138.437 54.1433 138.754 53.6683C139.07 53.1758 139.229 52.6216 139.229 52.006C139.229 51.3551 139.053 50.8185 138.701 50.3964C138.349 49.9742 137.857 49.6047 137.223 49.2881C136.608 48.9715 135.886 48.6548 135.06 48.3382C134.039 47.9512 133.142 47.529 132.368 47.0716C131.612 46.6142 131.023 46.0689 130.6 45.4356C130.178 44.7848 129.967 43.9931 129.967 43.0608C129.967 42.1285 130.196 41.3017 130.653 40.5805C131.11 39.8592 131.753 39.2963 132.579 38.8917C133.406 38.4695 134.365 38.2584 135.455 38.2584C136.617 38.2584 137.646 38.5223 138.543 39.05C139.44 39.5778 140.161 40.3606 140.706 41.3984L138.859 42.5331C138.455 41.8118 137.962 41.2665 137.382 40.8971C136.801 40.5101 136.133 40.3166 135.376 40.3166C134.778 40.3166 134.242 40.4309 133.767 40.6596C133.309 40.8883 132.949 41.2049 132.685 41.6095C132.421 42.0141 132.289 42.4803 132.289 43.008C132.289 43.571 132.447 44.0547 132.764 44.4593C133.081 44.8463 133.538 45.1894 134.136 45.4884C134.734 45.7875 135.455 46.0953 136.3 46.4119C137.373 46.8165 138.296 47.2563 139.07 47.7313C139.845 48.2062 140.443 48.778 140.865 49.4464C141.305 50.0973 141.524 50.9065 141.524 51.874C141.524 52.9119 141.269 53.8354 140.759 54.6446C140.249 55.4538 139.545 56.0959 138.648 56.5709C137.751 57.0282 136.713 57.2569 135.535 57.2569Z" fill="black"/>
<path d="M22.2539 24.9658L29.2114 27.9792C33.6641 29.9076 38.6735 29.9076 43.1263 27.9792C47.5791 26.0506 52.5885 26.0506 57.0412 27.9792C61.494 29.9076 66.5034 29.9076 70.9562 27.9792C75.4089 26.0506 80.4183 26.0506 84.8711 27.9792C89.3239 29.9076 94.3332 29.9076 98.786 27.9792C103.239 26.0506 108.248 26.0506 112.701 27.9792C117.154 29.9076 122.163 29.9076 126.616 27.9792L133.573 24.9658" stroke="#23A3FF" stroke-width="2.06147" stroke-miterlimit="2" stroke-linecap="round" stroke-linejoin="round"/>
<path d="M22.2539 31.4526L29.2114 34.4661C33.6641 36.3945 38.6735 36.3945 43.1263 34.4661C47.5791 32.5375 52.5885 32.5375 57.0412 34.4661C61.494 36.3945 66.5034 36.3945 70.9562 34.4661C75.4089 32.5375 80.4183 32.5375 84.8711 34.4661C89.3239 36.3945 94.3332 36.3945 98.786 34.4661C103.239 32.5375 108.248 32.5375 112.701 34.4661C117.154 36.3945 122.163 36.3945 126.616 34.4661L133.573 31.4526" stroke="#23A3FF" stroke-width="2.06147" stroke-miterlimit="2" stroke-linecap="round" stroke-linejoin="round"/>
</svg>
