<svg width="52" height="52" viewBox="0 0 52 52" fill="none" xmlns="http://www.w3.org/2000/svg">
<circle cx="26" cy="26" r="25.5" stroke="#23A3FF"/>
<path d="M36 30.375C34.4375 30.375 32.9375 30.125 31.5375 29.6625C31.1 29.525 30.6125 29.625 30.2625 29.9625L27.5125 32.7125C23.975 30.9125 21.075 28.025 19.275 24.475L22.025 21.7125C22.375 21.3875 22.475 20.9 22.3375 20.4625C21.875 19.0625 21.625 17.5625 21.625 16C21.625 15.3125 21.0625 14.75 20.375 14.75H16C15.3125 14.75 14.75 15.3125 14.75 16C14.75 27.7375 24.2625 37.25 36 37.25C36.6875 37.25 37.25 36.6875 37.25 36V31.625C37.25 30.9375 36.6875 30.375 36 30.375ZM34.75 26H37.25C37.25 19.7875 32.2125 14.75 26 14.75V17.25C30.8375 17.25 34.75 21.1625 34.75 26ZM29.75 26H32.25C32.25 22.55 29.45 19.75 26 19.75V22.25C28.075 22.25 29.75 23.925 29.75 26Z" fill="#23A3FF"/>
</svg>
