<?xml version="1.0" encoding="UTF-8"?>
<!DOCTYPE svg PUBLIC "-//W3C//DTD SVG 1.1//EN" "http://www.w3.org/Graphics/SVG/1.1/DTD/svg11.dtd">
<!-- Creator: CorelDRAW -->
<svg xmlns="http://www.w3.org/2000/svg" xml:space="preserve" width="30mm" height="13mm" style="shape-rendering:geometricPrecision; text-rendering:geometricPrecision; image-rendering:optimizeQuality; fill-rule:evenodd; clip-rule:evenodd"
viewBox="0 0 93.6308 41.0709"
 xmlns:xlink="http://www.w3.org/1999/xlink">
 <defs>
  <style type="text/css">
   <![CDATA[
    .fil1 {fill:#0093DD}
    .fil0 {fill:black;fill-rule:nonzero}
   ]]>
  </style>
 </defs>
 <g id="Слой_x0020_1">
  <metadata id="CorelCorpID_0Corel-Layer"/>
  <g id="_74450264">
   <path id="_13961280" class="fil0" d="M26.1913 25.2302c0.0648079,-0.225627 0.0285635,-0.427972 -0.106333,-0.604393 -0.137537,-0.171141 -0.318999,-0.256591 -0.544626,-0.256591l-1.12574 0c-0.225627,0 -0.456535,0.0854504 -0.687204,0.256591 -0.225627,0.176421 -0.370845,0.378766 -0.430612,0.604393l-1.13342 4.21467c-0.0544866,0.220347 -0.0180022,0.417411 0.114254,0.588792 0.129616,0.176181 0.308678,0.264512 0.536705,0.264512l1.11806 0c0.225387,0 0.456295,-0.0883307 0.694884,-0.264512 0.230908,-0.171381 0.373485,-0.368445 0.430612,-0.588792l1.13342 -4.21467zm63.7774 15.7728l0 -3.99841 1.52515 0c0.344442,0 0.607514,0.0194424 0.788976,0.057607 0.253711,0.0523264 0.470457,0.148098 0.649999,0.285875 0.232828,0.178822 0.40805,0.405889 0.523744,0.683363 0.116414,0.277474 0.174261,0.593832 0.174261,0.950516 0,0.303397 -0.0391248,0.57247 -0.118574,0.806978 -0.0782495,0.234749 -0.178582,0.429172 -0.302197,0.582791 -0.122895,0.153619 -0.256831,0.274833 -0.403249,0.362204 -0.145218,0.0885708 -0.321879,0.155539 -0.527824,0.201144 -0.207625,0.0456055 -0.444774,0.0679283 -0.711927,0.0679283l-1.59835 0zm0.585671 -0.471897l0.945715 0c0.291875,0 0.521823,-0.0242429 0.687924,-0.073689 0.1661,-0.049206 0.298116,-0.118094 0.397248,-0.207625 0.138977,-0.124575 0.24723,-0.294036 0.324519,-0.505501 0.0775294,-0.212186 0.116654,-0.468297 0.116654,-0.770734 0,-0.418131 -0.0763293,-0.73929 -0.228028,-0.963477 -0.152659,-0.225387 -0.337001,-0.375166 -0.554707,-0.451495 -0.156739,-0.0549667 -0.41045,-0.08209 -0.758012,-0.08209l-0.931313 0 0 3.05461zm-7.27984 0.471897l0 -3.99841 3.20247 0 0 0.471897 -2.61656 0 0 1.22415 2.4507 0 0 0.469257 -2.4507 0 0 1.36121 2.71977 0 0 0.471897 -3.30568 0zm-5.24368 0l0 -3.52651 -1.45938 0 0 -0.471897 3.51067 0 0 0.471897 -1.46562 0 0 3.52651 -0.585671 0zm-7.45627 0l0 -3.99841 2.98884 0 0 0.471897 -2.40197 0 0 1.23831 2.07817 0 0 0.471897 -2.07817 0 0 1.8163 -0.586871 0zm-7.22296 0l1.70181 -3.99841 0.631037 0 1.81342 3.99841 -0.668481 0 -0.516783 -1.21119 -1.85231 0 -0.485579 1.21119 -0.623116 0zm1.27816 -1.64228l1.50258 0 -0.463256 -1.10677c-0.140177,-0.336041 -0.24531,-0.612554 -0.313478,-0.829541 -0.0566469,0.257071 -0.136097,0.511022 -0.239309,0.764253l-0.486539 1.17206zm-7.82951 1.64228l0 -3.99841 1.96344 0c0.395088,0 0.695124,0.0362444 0.900349,0.108013 0.205225,0.0715287 0.369405,0.198264 0.49302,0.379726 0.122895,0.182422 0.183622,0.383567 0.183622,0.603193 0,0.283955 -0.101292,0.522303 -0.305077,0.716967 -0.203545,0.194424 -0.517983,0.318279 -0.942835,0.371325 0.155539,0.0672082 0.273153,0.133216 0.353803,0.199224 0.171141,0.141617 0.33316,0.319479 0.486779,0.531665l0.770494 1.08829 -0.73737 0 -0.585911 -0.832181c-0.171141,-0.239309 -0.312758,-0.423651 -0.423892,-0.550387 -0.110413,-0.127455 -0.209545,-0.216746 -0.296916,-0.267152 -0.0878507,-0.0511262 -0.176661,-0.0864105 -0.267392,-0.107053 -0.0669681,-0.0120015 -0.175221,-0.0184822 -0.32668,-0.0184822l-0.679763 0 0 1.77526 -0.585671 0zm0.585671 -2.23347l1.26015 0c0.267392,0 0.477658,-0.024963 0.628156,-0.0753692 0.151458,-0.0501661 0.266192,-0.130336 0.344682,-0.240029 0.0780095,-0.109933 0.117374,-0.228988 0.117374,-0.358604 0,-0.188903 -0.0751291,-0.344442 -0.227788,-0.466377 -0.151938,-0.121935 -0.391968,-0.182422 -0.720808,-0.182422l-1.40177 0 0 1.3228zm-4.48302 0.831461l0.586871 0.133936c-0.122415,0.433973 -0.344202,0.765453 -0.663201,0.994441 -0.319479,0.228028 -0.709286,0.341562 -1.17158,0.341562 -0.477178,0 -0.865305,-0.0873706 -1.16414,-0.262592 -0.299076,-0.175941 -0.527104,-0.429892 -0.682883,-0.762333 -0.155779,-0.333401 -0.234028,-0.690804 -0.234028,-1.07245 0,-0.416211 0.0876106,-0.779135 0.264032,-1.08925 0.176421,-0.310118 0.427012,-0.545586 0.752971,-0.706646 0.324759,-0.16106 0.682643,-0.240989 1.07341,-0.240989 0.443574,0 0.815859,0.101292 1.11806,0.305317 0.302197,0.203785 0.512462,0.48966 0.631037,0.859304l-0.57631 0.122895c-0.103213,-0.291395 -0.251551,-0.502861 -0.447654,-0.635837 -0.194904,-0.133216 -0.440213,-0.199224 -0.73737,-0.199224 -0.340361,0 -0.624076,0.0734489 -0.853064,0.220587 -0.228988,0.148098 -0.389807,0.345402 -0.481499,0.593832 -0.0928913,0.24771 -0.139457,0.503821 -0.139457,0.767133 0,0.340841 0.0549667,0.636797 0.16418,0.890988 0.110413,0.253231 0.280594,0.443094 0.512702,0.568869 0.231868,0.125535 0.482699,0.187943 0.752731,0.187943 0.32788,0 0.605594,-0.0856904 0.833381,-0.255871 0.227788,-0.171381 0.381646,-0.425572 0.461816,-0.761613zm-8.08082 0.202105l0 -0.4935 1.6718 0 0 0.4935 -1.6718 0zm-6.77242 1.19991l0 -3.99841 0.601513 0 2.32684 3.1391 0 -3.1391 0.561668 0 0 3.99841 -0.601033 0 -2.32684 -3.14198 0 3.14198 -0.562148 0zm-7.56404 -1.9476c0,-0.663681 0.197064,-1.1831 0.591912,-1.55827 0.394848,-0.375166 0.90443,-0.563348 1.52947,-0.563348 0.40853,0 0.777454,0.0885708 1.10557,0.264512 0.32788,0.176661 0.57847,0.422451 0.750811,0.73809 0.172341,0.314678 0.257791,0.673042 0.257791,1.07245 0,0.405889 -0.0897709,0.769053 -0.271233,1.08829 -0.181462,0.320199 -0.438293,0.562388 -0.770494,0.727048 -0.33292,0.1649 -0.690804,0.24675 -1.07557,0.24675 -0.417891,0 -0.790176,-0.090251 -1.11782,-0.272673 -0.32908,-0.181702 -0.57775,-0.430132 -0.746731,-0.744811 -0.169221,-0.313718 -0.253711,-0.647119 -0.253711,-0.998041zm0.604393 0.00840102c0,0.482219 0.143297,0.861225 0.429892,1.13846 0.287795,0.277474 0.647839,0.416211 1.08109,0.416211 0.441414,0 0.804338,-0.139697 1.08877,-0.419811 0.284915,-0.280114 0.428212,-0.677842 0.428212,-1.19246 0,-0.324999 -0.0619275,-0.608954 -0.183862,-0.851864 -0.121455,-0.24291 -0.299796,-0.431092 -0.534065,-0.565029 -0.235229,-0.133216 -0.498061,-0.200184 -0.790176,-0.200184 -0.41549,0 -0.772414,0.128416 -1.07125,0.386207 -0.299076,0.257071 -0.448615,0.687204 -0.448615,1.28848zm-4.62392 1.9392l0 -3.99841 0.585671 0 0 3.99841 -0.585671 0zm-7.00549 -1.28464l0.552787 -0.0439253c0.0259232,0.200184 0.0866505,0.364124 0.182662,0.49254 0.0957716,0.128416 0.24435,0.231868 0.445494,0.311078 0.201144,0.0789696 0.428212,0.118094 0.679763,0.118094 0.223707,0 0.420531,-0.0297636 0.591912,-0.0892909 0.171141,-0.0604874 0.299076,-0.142577 0.382606,-0.24675 0.0835302,-0.105133 0.125775,-0.218667 0.125775,-0.342522 0,-0.125775 -0.0400849,-0.234749 -0.121455,-0.3286 -0.0806498,-0.0940914 -0.213626,-0.172341 -0.398208,-0.235709 -0.119535,-0.0417651 -0.381646,-0.107053 -0.788976,-0.195384 -0.406609,-0.0885708 -0.692004,-0.171381 -0.855224,-0.24963 -0.211226,-0.0996121 -0.368925,-0.224187 -0.473338,-0.372285 -0.102973,-0.148098 -0.154579,-0.313718 -0.154579,-0.498061 0,-0.201144 0.0628876,-0.390047 0.189863,-0.565029 0.126735,-0.175941 0.312278,-0.309158 0.555668,-0.400369 0.24459,-0.090251 0.514863,-0.135857 0.812979,-0.135857 0.32884,0 0.617595,0.0475258 0.869146,0.143297 0.25083,0.0950516 0.443574,0.235469 0.57871,0.420771 0.133936,0.185303 0.207385,0.395568 0.217466,0.630317l-0.561908 0.0381646c-0.0309638,-0.252271 -0.133216,-0.444054 -0.307237,-0.57247 -0.174501,-0.129616 -0.431092,-0.193704 -0.771454,-0.193704 -0.354763,0 -0.612794,0.0585671 -0.775774,0.175941 -0.16178,0.117374 -0.24315,0.258751 -0.24315,0.423651 0,0.144258 0.057607,0.262352 0.172101,0.354523 0.113294,0.0931313 0.40757,0.188183 0.883787,0.284915 0.476458,0.0976919 0.803618,0.182422 0.980999,0.255151 0.257551,0.108013 0.448374,0.24387 0.571269,0.40781 0.122655,0.16466 0.183622,0.354523 0.183622,0.568629 0,0.213386 -0.0672082,0.41333 -0.202105,0.601513 -0.135136,0.187943 -0.32932,0.334121 -0.581831,0.439493 -0.252751,0.104173 -0.537185,0.156259 -0.852824,0.156259 -0.401329,0 -0.73737,-0.0520863 -1.00788,-0.158179 -0.271233,-0.105133 -0.483659,-0.263552 -0.638238,-0.475738 -0.153619,-0.211466 -0.235229,-0.451495 -0.242429,-0.718647zm-6.70617 0l0.552787 -0.0439253c0.0256831,0.200184 0.0866505,0.364124 0.182662,0.49254 0.0957716,0.128416 0.24435,0.231868 0.445494,0.311078 0.200904,0.0789696 0.427972,0.118094 0.679523,0.118094 0.223947,0 0.420771,-0.0297636 0.591912,-0.0892909 0.171381,-0.0604874 0.299316,-0.142577 0.382606,-0.24675 0.0835302,-0.105133 0.125775,-0.218667 0.125775,-0.342522 0,-0.125775 -0.0400849,-0.234749 -0.121455,-0.3286 -0.0806498,-0.0940914 -0.213386,-0.172341 -0.397968,-0.235709 -0.119775,-0.0417651 -0.381646,-0.107053 -0.788976,-0.195384 -0.406609,-0.0885708 -0.692244,-0.171381 -0.855224,-0.24963 -0.211466,-0.0996121 -0.369165,-0.224187 -0.473338,-0.372285 -0.103213,-0.148098 -0.154819,-0.313718 -0.154819,-0.498061 0,-0.201144 0.0631277,-0.390047 0.189863,-0.565029 0.126975,-0.175941 0.312518,-0.309158 0.555908,-0.400369 0.24459,-0.090251 0.514623,-0.135857 0.812739,-0.135857 0.32908,0 0.617835,0.0475258 0.869386,0.143297 0.25059,0.0950516 0.443574,0.235469 0.57847,0.420771 0.134176,0.185303 0.207385,0.395568 0.217706,0.630317l-0.561908 0.0381646c-0.0312038,-0.252271 -0.133216,-0.444054 -0.307477,-0.57247 -0.174501,-0.129616 -0.431092,-0.193704 -0.771454,-0.193704 -0.354763,0 -0.612554,0.0585671 -0.775534,0.175941 -0.16202,0.117374 -0.24339,0.258751 -0.24339,0.423651 0,0.144258 0.057607,0.262352 0.172341,0.354523 0.113294,0.0931313 0.407329,0.188183 0.883547,0.284915 0.476698,0.0976919 0.803618,0.182422 0.980999,0.255151 0.257791,0.108013 0.448615,0.24387 0.571509,0.40781 0.122415,0.16466 0.183382,0.354523 0.183382,0.568629 0,0.213386 -0.0669681,0.41333 -0.202105,0.601513 -0.135136,0.187943 -0.32908,0.334121 -0.581831,0.439493 -0.252511,0.104173 -0.537185,0.156259 -0.852824,0.156259 -0.401089,0 -0.73737,-0.0520863 -1.00764,-0.158179 -0.271233,-0.105133 -0.483659,-0.263552 -0.638238,-0.475738 -0.153619,-0.211466 -0.235229,-0.451495 -0.242429,-0.718647zm-6.99397 1.28464l1.70181 -3.99841 0.631037 0 1.81318 3.99841 -0.668481 0 -0.516783 -1.21119 -1.85231 0 -0.485579 1.21119 -0.622876 0zm1.27792 -1.64228l1.50258 0 -0.463256 -1.10677c-0.140177,-0.336041 -0.24531,-0.612554 -0.313478,-0.829541 -0.0566469,0.257071 -0.136097,0.511022 -0.239309,0.764253l-0.486539 1.17206zm-7.03838 1.64228l0 -3.99841 1.6706 0c0.293796,0 0.518943,0.0129616 0.673522,0.0381646 0.217466,0.032644 0.399889,0.0948115 0.547507,0.186983 0.146658,0.0914511 0.265232,0.220827 0.354763,0.385487 0.0900109,0.16586 0.133936,0.347322 0.133936,0.545586 0,0.339881 -0.119294,0.628396 -0.358604,0.863865 -0.240269,0.234749 -0.673522,0.352843 -1.29952,0.352843l-1.13654 0 0 1.62548 -0.585671 0zm0.585671 -2.09737l1.1459 0c0.378286,0 0.647359,-0.0633677 0.806498,-0.190823 0.158659,-0.127696 0.238349,-0.306277 0.238349,-0.537185 0,-0.16754 -0.0465657,-0.311078 -0.140417,-0.430132 -0.0938514,-0.119294 -0.216506,-0.197304 -0.370365,-0.235469 -0.099132,-0.0232828 -0.280354,-0.0355243 -0.546546,-0.0355243l-1.13342 0 0 1.42913zm19.6298 -7.12911c-0.66128,0 -1.1747,-0.233308 -1.54315,-0.702805 -0.360524,-0.459176 -0.458936,-1.00116 -0.293076,-1.63148l1.13342 -4.21707c0.1661,-0.619995 0.554947,-1.16462 1.16966,-1.6394 0.630317,-0.464216 1.26831,-0.694884 1.91159,-0.694884l5.56052 0c0.632957,0 1.1387,0.230668 1.50954,0.694884 0.373485,0.469497 0.477178,1.01412 0.311078,1.6394l-1.14086 4.21707c-0.1661,0.630317 -0.560228,1.1723 -1.17758,1.63148 -0.614715,0.469497 -1.24239,0.702805 -1.88303,0.702805l-5.55812 0zm17.8207 -6.54632c0.0648079,-0.225627 0.0285635,-0.427972 -0.106573,-0.604393 -0.137297,-0.171141 -0.318759,-0.256591 -0.544626,-0.256591l-1.1255 0c-0.225627,0 -0.456535,0.0854504 -0.687204,0.256591 -0.225627,0.176421 -0.371085,0.378766 -0.430612,0.604393l-1.13342 4.21467c-0.0544866,0.220347 -0.0182422,0.417411 0.114014,0.588792 0.129856,0.176181 0.308678,0.264512 0.536945,0.264512l1.11782 0c0.225627,0 0.456535,-0.0883307 0.695124,-0.264512 0.230908,-0.171381 0.373485,-0.368445 0.430612,-0.588792l1.13342 -4.21467zm-5.97577 6.54632c-0.66128,0 -1.17494,-0.233308 -1.54315,-0.702805 -0.360524,-0.459176 -0.459176,-1.00116 -0.293076,-1.63148l1.13342 -4.21707c0.16586,-0.619995 0.554947,-1.16462 1.16966,-1.6394 0.630317,-0.464216 1.26831,-0.694884 1.91159,-0.694884l5.56052 0c0.632957,0 1.1387,0.230668 1.50954,0.694884 0.373485,0.469497 0.477178,1.01412 0.311318,1.6394l-1.14134 4.21707c-0.16586,0.630317 -0.560228,1.1723 -1.17734,1.63148 -0.614715,0.469497 -1.24239,0.702805 -1.88303,0.702805l-5.55812 0zm11.8735 0c-0.65888,0 -1.1723,-0.233308 -1.54051,-0.702805 -0.358124,-0.487739 -0.456535,-1.03237 -0.293076,-1.63148l1.75845 -6.55136 3.78406 0 -1.75845 6.554c-0.0571269,0.220347 -0.0182422,0.417411 0.111614,0.588792 0.132256,0.176181 0.311078,0.264512 0.536705,0.264512l4.66857 0 -0.383807 1.47834 -6.88356 0zm7.76782 0l0.383807 -1.47834 5.7943 0c0.222987,0 0.451015,-0.0883307 0.687204,-0.264512 0.233308,-0.171381 0.376126,-0.368445 0.430372,-0.588792 0.0674482,-0.256831 -0.171141,-0.487499 -0.715767,-0.687444 -0.352603,-0.111374 -0.708086,-0.220347 -1.06597,-0.321399 -0.357883,-0.103693 -0.718407,-0.212666 -1.07893,-0.32956 -0.9882,-0.303397 -1.68837,-0.630077 -2.10074,-0.982919 -0.594072,-0.503101 -0.788496,-1.13606 -0.581111,-1.89839 0.1661,-0.617355 0.555187,-1.16462 1.1699,-1.6394 0.630077,-0.464216 1.26567,-0.694884 1.91135,-0.694884l7.99873 0 -0.383807 1.47834 -5.79406 0c-0.225867,0 -0.456535,0.0854504 -0.687444,0.256591 -0.228268,0.176421 -0.370845,0.378766 -0.430612,0.604393 -0.0595272,0.220587 0.179062,0.443574 0.718407,0.664161 0.350203,0.116654 0.705686,0.225387 1.06357,0.32932 0.357883,0.101052 0.718407,0.212666 1.08157,0.32668 0.9906,0.303397 1.69605,0.630317 2.1137,0.982919 0.586151,0.523984 0.770254,1.15934 0.560228,1.90895 -0.1661,0.630317 -0.560228,1.17494 -1.17998,1.63148 -0.612314,0.469497 -1.23975,0.702805 -1.88063,0.702805l-8.01409 0zm18.5156 -7.4073c-0.225627,0 -0.456535,0.0854504 -0.687204,0.256591 -0.228268,0.176421 -0.371085,0.376126 -0.430612,0.601753l-0.370845 1.35136 2.89427 0 0.604393 -2.20971 -2.01 0zm1.01148 3.70365l-2.89187 0 -0.998281 3.70365 -3.77638 0 1.75317 -6.55136c0.1661,-0.619995 0.555187,-1.16462 1.1699,-1.6394 0.630077,-0.464216 1.26567,-0.694884 1.91135,-0.694884l7.99849 0 -2.37821 8.88564 -3.78406 0 0.995881 -3.70365zm12.5168 -2.84267c0.0595272,-0.233308 0.0232828,-0.433013 -0.114254,-0.604393 -0.134896,-0.171141 -0.316358,-0.256591 -0.541986,-0.256591l-1.79206 0 -0.747211 2.75433 1.78966 0c0.228268,0 0.456535,-0.0880907 0.687204,-0.264512 0.223227,-0.171141 0.368445,-0.365804 0.438533,-0.588792l0.280114 -1.04005zm-0.920752 4.21203c0.0595272,-0.217706 0.0206425,-0.41237 -0.114254,-0.583511 -0.124335,-0.171141 -0.303397,-0.256831 -0.536705,-0.256831l-2.0076 0 -0.855944 3.17463 -3.78406 0 2.38109 -8.88564 7.78079 0c0.653599,0 1.16198,0.230668 1.52491,0.694884 0.373485,0.469497 0.477418,1.01412 0.308678,1.6394l-0.202105 0.734009c-0.197304,0.723448 -0.682163,1.33552 -1.4577,1.83622 0.674242,0.461576 0.894829,1.12046 0.663921,1.97112l-0.544626 2.01 -3.77638 0 0.619995 -2.33428zm-71.8477 -0.840342l-0.861225 3.17463 -3.77878 0 0.780575 -2.91323 0.379966 -1.41833c0.899389,-0.382847 2.33812,-0.789216 2.68233,-0.894589 0.363164,-0.114014 0.723688,-0.225627 1.08157,-0.32668 0.357883,-0.103933 0.713367,-0.212666 1.06357,-0.32932 0.539346,-0.220587 0.777935,-0.443574 0.718407,-0.664161 -0.0597673,-0.225627 -0.202345,-0.427972 -0.430612,-0.604393 -0.230908,-0.171141 -0.461576,-0.256591 -0.687444,-0.256591l-3.60356 0 0.396288 -1.47834 8.01409 0c0.645678,0 1.14878,0.230668 1.51194,0.694884 0.370845,0.469497 0.474778,1.01412 0.308678,1.6394l-0.280114 1.04245c-0.16586,0.619995 -0.560228,1.16462 -1.18526,1.63148 -0.614475,0.469497 -1.24215,0.702805 -1.88039,0.702805l-4.23003 0z"/>
   <path id="_73529592" class="fil1" d="M49.0617 5.70117l5.38865 -0.0110413c0.312998,0.0151218 0.562148,0.273633 0.562148,0.590472 0,0.179542 -0.0801697,0.340601 -0.206665,0.448855l-4.39349 3.34289 1.67252 5.37737c0.00960117,0.0475258 0.0158419,0.0864105 0.0158419,0.135376 0,0.32644 -0.264752,0.591192 -0.591192,0.591192 -0.120015,0 -0.231388,-0.0357643 -0.324519,-0.0972118l-4.309 -3.30496 -4.30324 3.30064c-0.0945715,0.0638478 -0.208345,0.101052 -0.33076,0.101052 -0.32644,0 -0.591192,-0.264512 -0.591192,-0.591192 0,-0.0441654 0.00504061,-0.0871306 0.0141617,-0.128656l1.67444 -5.38361 -4.42086 -3.36353c-0.114734,-0.107773 -0.186263,-0.261152 -0.186263,-0.430852 0,-0.305317 0.231388,-0.556628 0.528304,-0.587831l5.4297 0.0110413 1.63508 -5.32553c0.0859304,-0.220107 0.300036,-0.375646 0.550387,-0.375646 0.251551,0 0.466377,0.156979 0.551827,0.378526l1.63412 5.32265z"/>
  </g>
 </g>
</svg>
