<svg width="41" height="41" viewBox="0 0 41 41" fill="none" xmlns="http://www.w3.org/2000/svg">
<g clip-path="url(#clip0_1078_643)">
<path d="M20.2796 37.1668C11.0554 37.1668 3.57812 29.7052 3.57812 20.5002C3.57812 11.2952 11.0554 3.8335 20.2796 3.8335C29.5038 3.8335 36.981 11.2952 36.981 20.5002C36.981 29.7052 29.5038 37.1668 20.2796 37.1668ZM15.0854 22.4502L15.1071 22.4385L16.5602 27.2218C16.7472 27.7402 17.0044 27.8335 17.3167 27.7902C17.6307 27.7485 17.7961 27.5802 18.0015 27.3835L19.9856 25.4702L24.2445 28.6168C25.0228 29.0452 25.5823 28.8235 25.776 27.8968L28.5435 14.8602C28.8491 13.6468 28.3147 13.1602 27.371 13.5468L11.1155 19.8135C10.0065 20.2568 10.0132 20.8768 10.9151 21.1518L15.0854 22.4518V22.4502Z" fill="#23A3FF"/>
</g>
<defs>
<clipPath id="clip0_1078_643">
<rect width="40.0835" height="40" fill="white" transform="translate(0.238281 0.5)"/>
</clipPath>
</defs>
</svg>
