<svg width="768" height="104" viewBox="0 0 768 104" fill="none" xmlns="http://www.w3.org/2000/svg">
<path d="M-282 4L-200.687 43.5895C-148.647 68.924 -90.1025 68.924 -38.0625 43.5895C13.9775 18.2521 72.5225 18.2521 124.563 43.5895C176.603 68.924 235.148 68.924 287.188 43.5895C339.228 18.2521 397.773 18.2521 449.813 43.5895C501.853 68.924 560.398 68.924 612.438 43.5895C664.478 18.2521 723.023 18.2521 775.063 43.5895C827.103 68.924 885.648 68.924 937.688 43.5895L1019 4" stroke="#23A3FF" stroke-width="8" stroke-miterlimit="2" stroke-linecap="round" stroke-linejoin="round"/>
<path d="M-282 40.0186L-202.461 80.257C-151.555 106.007 -94.2869 106.007 -43.3817 80.257C7.52357 54.5043 64.792 54.5043 115.697 80.257C166.602 106.007 223.871 106.007 274.776 80.257C325.681 54.5043 382.95 54.5043 433.855 80.257C484.76 106.007 542.029 106.007 592.934 80.257C643.839 54.5043 701.108 54.5043 752.013 80.257C802.918 106.007 860.186 106.007 911.092 80.257L990.631 40.0186" stroke="#23A3FF" stroke-width="8" stroke-miterlimit="2" stroke-linecap="round" stroke-linejoin="round"/>
</svg>
