<svg width="1920" height="199" viewBox="0 0 1920 199" fill="none" xmlns="http://www.w3.org/2000/svg">
<path d="M-186 4L-42.6875 83.1214C49.0325 133.754 152.218 133.754 243.938 83.1214C335.658 32.4834 438.843 32.4834 530.563 83.1214C622.283 133.754 725.468 133.754 817.188 83.1214C908.908 32.4834 1012.09 32.4834 1103.81 83.1214C1195.53 133.754 1298.72 133.754 1390.44 83.1214C1482.16 32.4834 1585.34 32.4834 1677.06 83.1214C1768.78 133.754 1871.97 133.754 1963.69 83.1214L2107 4" stroke="#23A3FF" stroke-width="8" stroke-miterlimit="2" stroke-linecap="round" stroke-linejoin="round"/>
<path d="M-186 75.9849L-45.8125 156.403C43.9075 207.865 144.843 207.865 234.563 156.403C324.283 104.935 425.218 104.935 514.938 156.403C604.658 207.865 705.592 207.865 795.312 156.403C885.032 104.935 985.968 104.935 1075.69 156.403C1165.41 207.865 1266.34 207.865 1356.06 156.403C1445.78 104.935 1546.72 104.935 1636.44 156.403C1726.16 207.865 1827.09 207.865 1916.81 156.403L2057 75.9849" stroke="#23A3FF" stroke-width="8" stroke-miterlimit="2" stroke-linecap="round" stroke-linejoin="round"/>
</svg>
