<svg width="1024" height="175" viewBox="0 0 1024 175" fill="none" xmlns="http://www.w3.org/2000/svg">
<path d="M-756 4L-614.187 73.0457C-523.427 117.23 -421.322 117.23 -330.562 73.0457C-239.802 28.8562 -137.697 28.8562 -46.9375 73.0457C43.8225 117.23 145.928 117.23 236.688 73.0457C327.448 28.8562 429.553 28.8562 520.313 73.0457C611.073 117.23 713.178 117.23 803.938 73.0457C894.698 28.8562 996.803 28.8562 1087.56 73.0457C1178.32 117.23 1280.43 117.23 1371.19 73.0457L1513 4" stroke="#23A3FF" stroke-width="8" stroke-miterlimit="2" stroke-linecap="round" stroke-linejoin="round"/>
<path d="M-756 66.8179L-617.28 136.996C-528.499 181.904 -428.62 181.904 -339.839 136.996C-251.058 92.0816 -151.18 92.0816 -62.399 136.996C26.3819 181.904 126.26 181.904 215.041 136.996C303.822 92.0816 403.701 92.0816 492.482 136.996C581.263 181.904 681.141 181.904 769.922 136.996C858.703 92.0816 958.582 92.0816 1047.36 136.996C1136.14 181.904 1236.02 181.904 1324.8 136.996L1463.52 66.8179" stroke="#23A3FF" stroke-width="8" stroke-miterlimit="2" stroke-linecap="round" stroke-linejoin="round"/>
</svg>
