<svg width="346" height="139" viewBox="0 0 346 139" fill="none" xmlns="http://www.w3.org/2000/svg">
<path d="M61.1005 46L78.1245 1.392H82.6045L99.6285 46H93.4845L80.4285 9.456L67.3085 46H61.1005ZM70.5725 35.504L72.3005 30.448H88.4285L90.2845 35.504H70.5725ZM141.77 46.768C137.674 46.768 134.069 45.808 130.954 43.888C127.882 41.968 125.472 39.28 123.722 35.824C122.016 32.368 121.162 28.336 121.162 23.728C121.162 19.0773 122.016 15.024 123.722 11.568C125.472 8.112 127.882 5.424 130.954 3.504C134.069 1.584 137.674 0.623997 141.77 0.623997C145.952 0.623997 149.6 1.584 152.715 3.504C155.829 5.424 158.24 8.112 159.946 11.568C161.696 15.024 162.57 19.0773 162.57 23.728C162.57 28.336 161.696 32.368 159.946 35.824C158.197 39.28 155.765 41.968 152.651 43.888C149.536 45.808 145.909 46.768 141.77 46.768ZM160.842 48.944L143.498 32.048L146.826 28.528L164.235 45.616L160.842 48.944ZM141.77 41.392C144.885 41.392 147.552 40.6667 149.77 39.216C152.032 37.7653 153.781 35.7173 155.019 33.072C156.256 30.4267 156.875 27.312 156.875 23.728C156.875 20.1013 156.256 16.9653 155.019 14.32C153.781 11.6747 152.032 9.62666 149.77 8.176C147.552 6.72533 144.885 6 141.77 6C138.741 6 136.096 6.72533 133.834 8.176C131.573 9.584 129.824 11.6107 128.586 14.256C127.392 16.9013 126.794 20.0587 126.794 23.728C126.794 27.3547 127.392 30.4907 128.586 33.136C129.824 35.7813 131.573 37.8293 133.834 39.28C136.096 40.688 138.741 41.392 141.77 41.392ZM207.653 46.768C202.362 46.768 198.309 45.3387 195.493 42.48C192.72 39.6213 191.333 35.4187 191.333 29.872V1.392H196.965V29.232C196.965 31.92 197.306 34.1813 197.989 36.016C198.714 37.8507 199.866 39.2373 201.445 40.176C203.024 41.1147 205.093 41.584 207.653 41.584C210.213 41.584 212.282 41.1147 213.861 40.176C215.482 39.1947 216.656 37.7867 217.381 35.952C218.106 34.1173 218.469 31.856 218.469 29.168V1.392H224.037V29.552C224.037 35.184 222.629 39.472 219.813 42.416C217.04 45.3173 212.986 46.768 207.653 46.768ZM247.326 46L264.35 1.392H268.83L285.854 46H279.71L266.654 9.456L253.534 46H247.326ZM256.798 35.504L258.526 30.448H274.654L276.51 35.504H256.798Z" fill="white"/>
<path d="M5.306 138V93.392H17.658C24.954 93.392 30.6073 95.376 34.618 99.344C38.6287 103.269 40.634 108.837 40.634 116.048C40.634 123.131 38.65 128.571 34.682 132.368C30.714 136.123 25.018 138 17.594 138H5.306ZM10.938 132.816H17.082C20.8793 132.816 24.1007 132.261 26.746 131.152C29.434 130 31.4607 128.187 32.826 125.712C34.234 123.195 34.938 119.909 34.938 115.856C34.938 111.803 34.234 108.517 32.826 106C31.4607 103.44 29.4767 101.563 26.874 100.368C24.314 99.1733 21.2207 98.576 17.594 98.576H10.938V132.816ZM68.131 138V93.392H81.443C84.8563 93.392 87.651 93.904 89.827 94.928C92.003 95.9093 93.6243 97.3387 94.691 99.216C95.7577 101.093 96.291 103.333 96.291 105.936C96.291 109.648 95.2243 112.592 93.091 114.768C90.9577 116.901 87.8643 118.16 83.811 118.544C83.171 118.587 82.403 118.608 81.507 118.608C80.611 118.608 79.7363 118.608 78.883 118.608H73.763V138H68.131ZM93.091 138L81.507 117.904L87.267 117.2L99.555 138H93.091ZM73.763 113.616H80.867C82.8297 113.616 84.5363 113.36 85.987 112.848C87.4377 112.336 88.5683 111.525 89.379 110.416C90.2323 109.307 90.659 107.835 90.659 106C90.659 104.123 90.2323 102.651 89.379 101.584C88.5683 100.475 87.4163 99.6853 85.923 99.216C84.4723 98.704 82.787 98.448 80.867 98.448H73.763V113.616ZM125.206 138V93.392H154.582V98.448H130.838V112.72H152.406V117.776H130.838V132.944H154.582V138H125.206ZM177.876 138L194.9 93.392H199.38L216.404 138H210.26L197.204 101.456L184.084 138H177.876ZM187.348 127.504L189.076 122.448H205.204L207.06 127.504H187.348ZM241.794 138V93.392H250.114L264.13 128.656H263.106L277.122 93.392H285.378V138H279.746V99.92L280.194 99.984L266.37 134.224H260.866L246.978 99.984L247.426 99.92V138H241.794ZM328.313 138.704C323.833 138.704 320.164 137.531 317.305 135.184C314.446 132.837 312.697 129.723 312.057 125.84L317.561 124.496C318.03 127.483 319.246 129.765 321.209 131.344C323.214 132.88 325.646 133.648 328.505 133.648C330.169 133.648 331.662 133.328 332.985 132.688C334.308 132.048 335.353 131.152 336.121 130C336.889 128.805 337.273 127.461 337.273 125.968C337.273 124.389 336.846 123.088 335.993 122.064C335.14 121.04 333.945 120.144 332.409 119.376C330.916 118.608 329.166 117.84 327.161 117.072C324.686 116.133 322.51 115.109 320.633 114C318.798 112.891 317.369 111.568 316.345 110.032C315.321 108.453 314.809 106.533 314.809 104.272C314.809 102.011 315.364 100.005 316.473 98.256C317.582 96.5067 319.14 95.1413 321.145 94.16C323.15 93.136 325.476 92.624 328.121 92.624C330.937 92.624 333.433 93.264 335.609 94.544C337.785 95.824 339.534 97.7227 340.857 100.24L336.377 102.992C335.396 101.243 334.201 99.92 332.793 99.024C331.385 98.0853 329.764 97.616 327.929 97.616C326.478 97.616 325.177 97.8933 324.025 98.448C322.916 99.0027 322.041 99.7707 321.401 100.752C320.761 101.733 320.441 102.864 320.441 104.144C320.441 105.509 320.825 106.683 321.593 107.664C322.361 108.603 323.47 109.435 324.921 110.16C326.372 110.885 328.121 111.632 330.169 112.4C332.772 113.381 335.012 114.448 336.889 115.6C338.766 116.752 340.217 118.139 341.241 119.76C342.308 121.339 342.841 123.301 342.841 125.648C342.841 128.165 342.222 130.405 340.985 132.368C339.748 134.331 338.041 135.888 335.865 137.04C333.689 138.149 331.172 138.704 328.313 138.704Z" fill="white"/>
<path d="M37 56L53.875 63.4327C64.675 68.1891 76.825 68.1891 87.625 63.4327C98.425 58.6757 110.575 58.6757 121.375 63.4327C132.175 68.1891 144.325 68.1891 155.125 63.4327C165.925 58.6757 178.075 58.6757 188.875 63.4327C199.675 68.1891 211.825 68.1891 222.625 63.4327C233.425 58.6757 245.575 58.6757 256.375 63.4327C267.175 68.1891 279.325 68.1891 290.125 63.4327L307 56" stroke="#23A3FF" stroke-width="5" stroke-miterlimit="2" stroke-linecap="round" stroke-linejoin="round"/>
<path d="M37 72L53.875 79.4327C64.675 84.1891 76.825 84.1891 87.625 79.4327C98.425 74.6757 110.575 74.6757 121.375 79.4327C132.175 84.1891 144.325 84.1891 155.125 79.4327C165.925 74.6757 178.075 74.6757 188.875 79.4327C199.675 84.1891 211.825 84.1891 222.625 79.4327C233.425 74.6757 245.575 74.6757 256.375 79.4327C267.175 84.1891 279.325 84.1891 290.125 79.4327L307 72" stroke="#23A3FF" stroke-width="5" stroke-miterlimit="2" stroke-linecap="round" stroke-linejoin="round"/>
</svg>
