<svg width="35" height="35" viewBox="0 0 35 35" fill="none" xmlns="http://www.w3.org/2000/svg">
<path d="M0.668812 34.1668L2.92685 25.8868C1.43898 23.3416 0.657282 20.4468 0.662132 17.5002C0.662132 8.29516 8.13937 0.833496 17.3636 0.833496C26.5878 0.833496 34.065 8.29516 34.065 17.5002C34.065 26.7052 26.5878 34.1668 17.3636 34.1668C14.4121 34.1716 11.5125 33.3921 8.96275 31.9085L0.668812 34.1668ZM11.336 9.68016C11.1204 9.69353 10.9096 9.75021 10.7164 9.84683C10.5352 9.94921 10.3698 10.0772 10.2254 10.2268C10.025 10.4152 9.9114 10.5785 9.78948 10.7368C9.17221 11.5385 8.84018 12.5225 8.84584 13.5335C8.84918 14.3502 9.06296 15.1452 9.39699 15.8885C10.0801 17.3918 11.2041 18.9835 12.6888 20.4585C13.0463 20.8135 13.3953 21.1702 13.7711 21.5018C15.6139 23.1209 17.8099 24.2886 20.1845 24.9118L21.1348 25.0568C21.4438 25.0735 21.7527 25.0502 22.0634 25.0352C22.5498 25.0101 23.0247 24.8787 23.4546 24.6502C23.7319 24.5035 23.8621 24.4302 24.0943 24.2835C24.0943 24.2835 24.1661 24.2368 24.303 24.1335C24.5285 23.9668 24.6671 23.8485 24.8542 23.6535C24.9928 23.5102 25.1131 23.3418 25.2049 23.1502C25.3352 22.8785 25.4655 22.3602 25.5189 21.9285C25.559 21.5985 25.5473 21.4185 25.5423 21.3068C25.5356 21.1285 25.387 20.9435 25.225 20.8652L24.2529 20.4302C24.2529 20.4302 22.7999 19.7985 21.9131 19.3952C21.8196 19.3545 21.7193 19.3313 21.6174 19.3268C21.5032 19.3151 21.3877 19.3279 21.2788 19.3645C21.1699 19.401 21.0701 19.4603 20.9861 19.5385V19.5352C20.9778 19.5352 20.8659 19.6302 19.6584 21.0902C19.5891 21.1831 19.4936 21.2533 19.3841 21.2919C19.2747 21.3305 19.1562 21.3357 19.0438 21.3068C18.9349 21.2778 18.8283 21.241 18.7248 21.1968C18.5177 21.1102 18.4458 21.0768 18.3039 21.0152L18.2955 21.0118C17.3401 20.5955 16.4554 20.0332 15.6734 19.3452C15.463 19.1618 15.2676 18.9618 15.0671 18.7685C14.4101 18.1406 13.8374 17.4302 13.3636 16.6552L13.265 16.4968C13.1943 16.3904 13.137 16.2757 13.0947 16.1552C13.0312 15.9102 13.1966 15.7135 13.1966 15.7135C13.1966 15.7135 13.6024 15.2702 13.7911 15.0302C13.9483 14.8307 14.0949 14.6232 14.2304 14.4085C14.4275 14.0918 14.4893 13.7668 14.3857 13.5152C13.9181 12.3752 13.4337 11.2402 12.936 10.1135C12.8375 9.89016 12.5452 9.73016 12.2797 9.6985C12.1895 9.6885 12.0993 9.6785 12.0091 9.67183C11.7848 9.66071 11.5601 9.66294 11.336 9.6785V9.68016Z" fill="#23A3FF"/>
</svg>
